<svg width="25" height="24" viewBox="0 0 25 24" fill="none" xmlns="http://www.w3.org/2000/svg">
<path fill-rule="evenodd" clip-rule="evenodd" d="M12.0305 0.0151963C9.49587 0.20047 7.13868 1.15046 5.17291 2.77892C4.80639 3.08255 3.94637 3.94253 3.65032 4.30146C1.49244 6.91756 0.538982 10.1885 0.961437 13.5259C1.25115 15.8147 2.18815 17.9381 3.71294 19.7614C3.95367 20.0492 4.6182 20.7252 4.92799 20.9973C8.17947 23.8536 12.6618 24.7474 16.7452 23.3536C18.937 22.6054 20.9083 21.1988 22.3316 19.3672C23.4843 17.8839 24.2648 16.179 24.63 14.3467C25.3639 10.6645 24.3482 6.88807 21.8626 4.05645C21.5875 3.74307 20.9153 3.08157 20.6148 2.82863C18.7468 1.25584 16.5377 0.315427 14.0878 0.0501833C13.6619 0.00404856 12.462 -0.016336 12.0305 0.0151963ZM18.5207 7.29666C18.7409 7.42909 18.8426 7.70989 18.7898 8.04021C18.7683 8.1754 18.069 11.4866 16.9147 16.9193C16.7355 17.7629 16.6771 17.9242 16.5065 18.0479C16.31 18.1903 16.1032 18.1946 15.8168 18.0623C15.7142 18.0149 14.8063 17.3531 12.95 15.9726L12.7061 15.7912L12.4969 15.996C10.9698 17.4912 10.9802 17.4828 10.6676 17.4828C10.4782 17.4828 10.3913 17.4568 10.3478 17.3871C10.3329 17.3633 10.0662 16.5078 9.75506 15.4859C9.4439 14.464 9.18661 13.6254 9.1833 13.6224C9.18 13.6194 8.49397 13.4047 7.6588 13.1453C6.82364 12.8858 6.08973 12.6483 6.02791 12.6174C5.96607 12.5866 5.88067 12.5216 5.8381 12.4731C5.65902 12.2691 5.79039 12.0278 6.18931 11.828C6.27013 11.7875 7.56512 11.2802 9.06707 10.7007C10.569 10.1212 13.159 9.12103 14.8226 8.47806C16.4862 7.83511 17.9024 7.28875 17.9698 7.26393C18.0371 7.23911 18.1588 7.21841 18.2402 7.21792C18.3647 7.21718 18.4094 7.22973 18.5207 7.29666Z" fill="white"/>
</svg>
