<svg width="24" height="24" viewBox="0 0 24 24" fill="none" xmlns="http://www.w3.org/2000/svg">
<g clip-path="url(#clip0_23381_378944)">
<path d="M23.7071 6.97453C23.7071 4.86516 22.1643 3.16828 20.258 3.16828C17.6759 3.04687 15.0425 3 12.3513 3H11.5124C8.82772 3 6.18967 3.04687 3.60755 3.16875C1.70592 3.16875 0.16317 4.875 0.16317 6.98437C0.046648 8.65266 -0.00275723 10.3214 3.92904e-05 11.9902C-0.00462158 13.6589 0.0482016 15.3292 0.158509 17.0011C0.158509 19.1105 1.70126 20.8214 3.60289 20.8214C6.31551 20.948 9.09805 21.0042 11.9272 20.9995C14.761 21.0089 17.5358 20.9495 20.2515 20.8214C22.1578 20.8214 23.7005 19.1105 23.7005 17.0011C23.8124 15.3277 23.8637 13.6589 23.859 11.9855C23.8696 10.3167 23.8189 8.64641 23.7071 6.97453ZM9.64804 16.5886V7.37766L16.4063 11.9808L9.64804 16.5886Z" fill="white"/>
</g>
<defs>
<clipPath id="clip0_23381_378944">
<rect width="23.8636" height="24" fill="white"/>
</clipPath>
</defs>
</svg>
