<svg width="50" height="50" viewBox="0 0 50 50" fill="none" xmlns="http://www.w3.org/2000/svg">
<rect x="1" y="1" width="48" height="48" rx="24" stroke="#091529" stroke-opacity="0.6"/>
<path fill-rule="evenodd" clip-rule="evenodd" d="M26.2746 17.75C26.2746 17.1977 25.8269 16.75 25.2746 16.75C24.7223 16.75 24.2746 17.1977 24.2746 17.75V30.3285L19.9586 25.9946C19.5689 25.6032 18.9357 25.6019 18.5444 25.9916C18.153 26.3813 18.1517 27.0145 18.5414 27.4058L24.5542 33.4435C24.7026 33.5977 24.9002 33.7044 25.1216 33.7384C25.1721 33.7462 25.2233 33.7502 25.275 33.7502C25.541 33.7502 25.796 33.6442 25.9836 33.4558L32.0076 27.4058C32.3973 27.0144 32.3959 26.3813 32.0046 25.9916C31.6132 25.6019 30.9801 25.6033 30.5904 25.9946L26.2746 30.329V17.75Z" fill="#091529" fill-opacity="0.6"/>
</svg>
